# xmcd
#
# Track frame offsets: 
#        150
#        16092
#        27322
#        38772
#        55192
#        68010
#        82242
#        97305
#        111202
#        127285
#        141152
#
# Disc length: 2079 seconds
#
# Revision: 2
# Processed by: cddbd v1.4PL0 Copyright (c) Steve Scherf et al.
# Submitted via: ExactAudioCopy v0.95a3
#
DISCID=9c081d0b
DTITLE=MidSouth - Lesons of Life
DYEAR=1900
DGENRE=Contemporary Christian
TTITLE0=You were at the End of Every Road
TTITLE1=The Wrong Side of the Tracks
TTITLE2=If you had only Seen me Then
TTITLE3=Somewhere Every River has a Bridge
TTITLE4=We'll go to the Well
TTITLE5=The Only Bible
TTITLE6=Learn to Give
TTITLE7=If I'd Known Then (What I Know Now)
TTITLE8=Who their Heroes Are
TTITLE9=Must be Love
TTITLE10=I Wasn't Meant to Live my Life Alone
EXTD=
EXTT0=
EXTT1=
EXTT2=
EXTT3=
EXTT4=
EXTT5=
EXTT6=
EXTT7=
EXTT8=
EXTT9=
EXTT10=
PLAYORDER=
